<svg xmlns="http://www.w3.org/2000/svg" viewBox="0 0 512 512" role="img" aria-label="I-Sopraelevazione">
  <defs>
    <linearGradient id="bg" x1="70" y1="55" x2="440" y2="455" gradientUnits="userSpaceOnUse">
      <stop stop-color="#0B3859"/>
      <stop offset="1" stop-color="#071F34"/>
    </linearGradient>
    <linearGradient id="line" x1="92" y1="260" x2="420" y2="260" gradientUnits="userSpaceOnUse">
      <stop stop-color="#53C0D6"/>
      <stop offset=".55" stop-color="#FFFFFF"/>
      <stop offset="1" stop-color="#DDEAF3"/>
    </linearGradient>
  </defs>
  <rect x="20" y="20" width="472" height="472" rx="112" fill="url(#bg)"/>
  <path d="M106 126v270M176 126v270M246 126v270M316 126v270M386 126v270" stroke="#6E8DA3" stroke-opacity=".18" stroke-width="8"/>
  <path d="M88 176h336M88 246h336M88 316h336" stroke="#8BA4B6" stroke-opacity=".15" stroke-width="8"/>
  <path d="M84 330h344" stroke="#9FB6C7" stroke-width="12" stroke-linecap="round" stroke-dasharray="18 18" opacity=".68"/>
  <path d="M92 330h52c22 0 31-18 44-55l25-70c11-31 24-43 51-43h56c27 0 39 11 51 43l23 62c13 36 24 50 46 50h20" fill="none" stroke="url(#line)" stroke-width="25" stroke-linecap="round" stroke-linejoin="round"/>
  <path d="M91 390h330" stroke="#56B879" stroke-width="17" stroke-linecap="round"/>
  <circle cx="394" cy="317" r="21" fill="#EF6C00" stroke="#fff" stroke-width="8"/>
  <circle cx="420" cy="390" r="20" fill="#C62828" stroke="#fff" stroke-width="8"/>
  <path d="M106 390h-18v-18" fill="none" stroke="#fff" stroke-width="10" stroke-linecap="round"/>
</svg>
